inDegrees=no
DataType=double
version=3
OpenSimVersion=4.4-2022-10-11-798caa840
endheader
time	elv_angle	shoulder_elv	shoulder_rot	elbow_flexion	pro_sup	deviation	flexion
1.2010425717	0.0783617049	0.5854632795	0.0000000000	1.4470673190	0.0000000000	0.0000000000	0.0000000000
1.2052128584	0.0794416373	0.5863158577	0.0000000000	1.4453621626	0.0000000000	0.0000000000	0.0000000000
1.2093831451	0.0805273983	0.5871730374	0.0000000000	1.4436478031	0.0000000000	0.0000000000	0.0000000000
1.2135534318	0.0816189207	0.5880347656	0.0000000000	1.4419243468	0.0000000000	0.0000000000	0.0000000000
1.2177237185	0.0827161364	0.5889009885	0.0000000000	1.4401919009	0.0000000000	0.0000000000	0.0000000000
1.2218940052	0.0838189768	0.5897716520	0.0000000000	1.4384505740	0.0000000000	0.0000000000	0.0000000000
1.2260642919	0.0849273727	0.5906467014	0.0000000000	1.4367004752	0.0000000000	0.0000000000	0.0000000000
1.2302345786	0.0860412541	0.5915260815	0.0000000000	1.4349417150	0.0000000000	0.0000000000	0.0000000000
1.2344048653	0.0871605506	0.5924097366	0.0000000000	1.4331744048	0.0000000000	0.0000000000	0.0000000000
1.2385751520	0.0882851910	0.5932976106	0.0000000000	1.4313986568	0.0000000000	0.0000000000	0.0000000000
1.2427454387	0.0894151036	0.5941896468	0.0000000000	1.4296145843	0.0000000000	0.0000000000	0.0000000000
1.2469157255	0.0905502160	0.5950857883	0.0000000000	1.4278223015	0.0000000000	0.0000000000	0.0000000000
1.2510860122	0.0916904554	0.5959859773	0.0000000000	1.4260219235	0.0000000000	0.0000000000	0.0000000000
1.2552562989	0.0928357483	0.5968901559	0.0000000000	1.4242135662	0.0000000000	0.0000000000	0.0000000000
1.2594265856	0.0939860207	0.5977982656	0.0000000000	1.4223973467	0.0000000000	0.0000000000	0.0000000000
1.2635968723	0.0951411979	0.5987102476	0.0000000000	1.4205733827	0.0000000000	0.0000000000	0.0000000000
1.2677671590	0.0963012048	0.5996260426	0.0000000000	1.4187417928	0.0000000000	0.0000000000	0.0000000000
1.2719374457	0.0974659658	0.6005455907	0.0000000000	1.4169026966	0.0000000000	0.0000000000	0.0000000000
1.2761077324	0.0986354046	0.6014688319	0.0000000000	1.4150562142	0.0000000000	0.0000000000	0.0000000000
1.2802780191	0.0998094446	0.6023957055	0.0000000000	1.4132024669	0.0000000000	0.0000000000	0.0000000000
1.2844483058	0.1009880085	0.6033261507	0.0000000000	1.4113415766	0.0000000000	0.0000000000	0.0000000000
1.2886185925	0.1021710185	0.6042601060	0.0000000000	1.4094736659	0.0000000000	0.0000000000	0.0000000000
1.2927888792	0.1033583966	0.6051975098	0.0000000000	1.4075988585	0.0000000000	0.0000000000	0.0000000000
1.2969591659	0.1045500640	0.6061382998	0.0000000000	1.4057172784	0.0000000000	0.0000000000	0.0000000000
1.3011294526	0.1057459415	0.6070824136	0.0000000000	1.4038290507	0.0000000000	0.0000000000	0.0000000000
1.3052997394	0.1069459496	0.6080297884	0.0000000000	1.4019343011	0.0000000000	0.0000000000	0.0000000000
1.3094700261	0.1081500082	0.6089803610	0.0000000000	1.4000331560	0.0000000000	0.0000000000	0.0000000000
1.3136403128	0.1093580367	0.6099340677	0.0000000000	1.3981257425	0.0000000000	0.0000000000	0.0000000000
1.3178105995	0.1105699543	0.6108908448	0.0000000000	1.3962121884	0.0000000000	0.0000000000	0.0000000000
1.3219808862	0.1117856796	0.6118506279	0.0000000000	1.3942926222	0.0000000000	0.0000000000	0.0000000000
1.3261511729	0.1130051308	0.6128133526	0.0000000000	1.3923671729	0.0000000000	0.0000000000	0.0000000000
1.3303214596	0.1142282258	0.6137789539	0.0000000000	1.3904359702	0.0000000000	0.0000000000	0.0000000000
1.3344917463	0.1154548820	0.6147473667	0.0000000000	1.3884991447	0.0000000000	0.0000000000	0.0000000000
1.3386620330	0.1166850165	0.6157185254	0.0000000000	1.3865568271	0.0000000000	0.0000000000	0.0000000000
1.3428323197	0.1179185459	0.6166923644	0.0000000000	1.3846091491	0.0000000000	0.0000000000	0.0000000000
1.3470026064	0.1191553865	0.6176688176	0.0000000000	1.3826562428	0.0000000000	0.0000000000	0.0000000000
1.3511728931	0.1203954544	0.6186478185	0.0000000000	1.3806982409	0.0000000000	0.0000000000	0.0000000000
1.3553431798	0.1216386651	0.6196293007	0.0000000000	1.3787352766	0.0000000000	0.0000000000	0.0000000000
1.3595134666	0.1228849340	0.6206131971	0.0000000000	1.3767674837	0.0000000000	0.0000000000	0.0000000000
1.3636837533	0.1241341759	0.6215994408	0.0000000000	1.3747949965	0.0000000000	0.0000000000	0.0000000000
1.3678540400	0.1253863055	0.6225879641	0.0000000000	1.3728179497	0.0000000000	0.0000000000	0.0000000000
1.3720243267	0.1266412371	0.6235786997	0.0000000000	1.3708364787	0.0000000000	0.0000000000	0.0000000000
1.3761946134	0.1278988849	0.6245715794	0.0000000000	1.3688507191	0.0000000000	0.0000000000	0.0000000000
1.3803649001	0.1291591624	0.6255665354	0.0000000000	1.3668608072	0.0000000000	0.0000000000	0.0000000000
1.3845351868	0.1304219832	0.6265634992	0.0000000000	1.3648668796	0.0000000000	0.0000000000	0.0000000000
1.3887054735	0.1316872605	0.6275624023	0.0000000000	1.3628690734	0.0000000000	0.0000000000	0.0000000000
1.3928757602	0.1329549071	0.6285631760	0.0000000000	1.3608675261	0.0000000000	0.0000000000	0.0000000000
1.3970460469	0.1342248359	0.6295657513	0.0000000000	1.3588623754	0.0000000000	0.0000000000	0.0000000000
1.4012163336	0.1354969591	0.6305700591	0.0000000000	1.3568537597	0.0000000000	0.0000000000	0.0000000000
1.4053866203	0.1367711891	0.6315760302	0.0000000000	1.3548418176	0.0000000000	0.0000000000	0.0000000000
1.4095569070	0.1380474378	0.6325835949	0.0000000000	1.3528266881	0.0000000000	0.0000000000	0.0000000000
1.4137271937	0.1393256170	0.6335926838	0.0000000000	1.3508085104	0.0000000000	0.0000000000	0.0000000000
1.4178974805	0.1406056383	0.6346032269	0.0000000000	1.3487874243	0.0000000000	0.0000000000	0.0000000000
1.4220677672	0.1418874129	0.6356151542	0.0000000000	1.3467635695	0.0000000000	0.0000000000	0.0000000000
1.4262380539	0.1431708522	0.6366283958	0.0000000000	1.3447370864	0.0000000000	0.0000000000	0.0000000000
1.4304083406	0.1444558672	0.6376428812	0.0000000000	1.3427081155	0.0000000000	0.0000000000	0.0000000000
1.4345786273	0.1457423686	0.6386585402	0.0000000000	1.3406767975	0.0000000000	0.0000000000	0.0000000000
1.4387489140	0.1470302671	0.6396753023	0.0000000000	1.3386432734	0.0000000000	0.0000000000	0.0000000000
1.4429192007	0.1483194734	0.6406930967	0.0000000000	1.3366076845	0.0000000000	0.0000000000	0.0000000000
1.4470894874	0.1496098979	0.6417118529	0.0000000000	1.3345701723	0.0000000000	0.0000000000	0.0000000000
1.4512597741	0.1509014507	0.6427314998	0.0000000000	1.3325308783	0.0000000000	0.0000000000	0.0000000000
1.4554300608	0.1521940421	0.6437519667	0.0000000000	1.3304899445	0.0000000000	0.0000000000	0.0000000000
1.4596003475	0.1534875821	0.6447731826	0.0000000000	1.3284475129	0.0000000000	0.0000000000	0.0000000000
1.4637706342	0.1547819808	0.6457950762	0.0000000000	1.3264037256	0.0000000000	0.0000000000	0.0000000000
1.4679409209	0.1560771478	0.6468175765	0.0000000000	1.3243587249	0.0000000000	0.0000000000	0.0000000000
1.4721112076	0.1573729931	0.6478406123	0.0000000000	1.3223126534	0.0000000000	0.0000000000	0.0000000000
1.4762814944	0.1586694264	0.6488641122	0.0000000000	1.3202656536	0.0000000000	0.0000000000	0.0000000000
1.4804517811	0.1599663572	0.6498880050	0.0000000000	1.3182178680	0.0000000000	0.0000000000	0.0000000000
1.4846220678	0.1612636952	0.6509122192	0.0000000000	1.3161694396	0.0000000000	0.0000000000	0.0000000000
1.4887923545	0.1625613500	0.6519366835	0.0000000000	1.3141205110	0.0000000000	0.0000000000	0.0000000000
1.4929626412	0.1638592311	0.6529613264	0.0000000000	1.3120712251	0.0000000000	0.0000000000	0.0000000000
1.4971329279	0.1651572479	0.6539860766	0.0000000000	1.3100217249	0.0000000000	0.0000000000	0.0000000000
1.5013032146	0.1664553100	0.6550108624	0.0000000000	1.3079721531	0.0000000000	0.0000000000	0.0000000000
1.5054735013	0.1677533268	0.6560356126	0.0000000000	1.3059226529	0.0000000000	0.0000000000	0.0000000000
1.5096437880	0.1690512079	0.6570602555	0.0000000000	1.3038733670	0.0000000000	0.0000000000	0.0000000000
1.5138140747	0.1703488626	0.6580847198	0.0000000000	1.3018244384	0.0000000000	0.0000000000	0.0000000000
1.5179843614	0.1716462007	0.6591089340	0.0000000000	1.2997760099	0.0000000000	0.0000000000	0.0000000000
1.5221546481	0.1729431315	0.6601328268	0.0000000000	1.2977282244	0.0000000000	0.0000000000	0.0000000000
1.5263249348	0.1742395647	0.6611563267	0.0000000000	1.2956812246	0.0000000000	0.0000000000	0.0000000000
1.5304952215	0.1755354100	0.6621793625	0.0000000000	1.2936351530	0.0000000000	0.0000000000	0.0000000000
1.5346655083	0.1768305771	0.6632018628	0.0000000000	1.2915901524	0.0000000000	0.0000000000	0.0000000000
1.5388357950	0.1781249757	0.6642237564	0.0000000000	1.2895463651	0.0000000000	0.0000000000	0.0000000000
1.5430060817	0.1794185158	0.6652449723	0.0000000000	1.2875039335	0.0000000000	0.0000000000	0.0000000000
1.5471763684	0.1807111072	0.6662654392	0.0000000000	1.2854629997	0.0000000000	0.0000000000	0.0000000000
1.5513466551	0.1820026600	0.6672850861	0.0000000000	1.2834237057	0.0000000000	0.0000000000	0.0000000000
1.5555169418	0.1832930845	0.6683038423	0.0000000000	1.2813861935	0.0000000000	0.0000000000	0.0000000000
1.5596872285	0.1845822907	0.6693216367	0.0000000000	1.2793506046	0.0000000000	0.0000000000	0.0000000000
1.5638575152	0.1858701893	0.6703383987	0.0000000000	1.2773170805	0.0000000000	0.0000000000	0.0000000000
1.5680278019	0.1871566907	0.6713540578	0.0000000000	1.2752857625	0.0000000000	0.0000000000	0.0000000000
1.5721980886	0.1884417056	0.6723685432	0.0000000000	1.2732567916	0.0000000000	0.0000000000	0.0000000000
1.5763683753	0.1897251449	0.6733817848	0.0000000000	1.2712303085	0.0000000000	0.0000000000	0.0000000000
1.5805386620	0.1910069196	0.6743937121	0.0000000000	1.2692064537	0.0000000000	0.0000000000	0.0000000000
1.5847089487	0.1922869408	0.6754042552	0.0000000000	1.2671853676	0.0000000000	0.0000000000	0.0000000000
1.5888792354	0.1935651200	0.6764133440	0.0000000000	1.2651671899	0.0000000000	0.0000000000	0.0000000000
1.5930495222	0.1948413687	0.6774209088	0.0000000000	1.2631520604	0.0000000000	0.0000000000	0.0000000000
1.5972198089	0.1961155987	0.6784268799	0.0000000000	1.2611401183	0.0000000000	0.0000000000	0.0000000000
1.6013900956	0.1973877220	0.6794311877	0.0000000000	1.2591315026	0.0000000000	0.0000000000	0.0000000000
1.6055603823	0.1986576507	0.6804337630	0.0000000000	1.2571263519	0.0000000000	0.0000000000	0.0000000000
1.6097306690	0.1999252974	0.6814345367	0.0000000000	1.2551248046	0.0000000000	0.0000000000	0.0000000000
1.6139009557	0.2011905747	0.6824334398	0.0000000000	1.2531269983	0.0000000000	0.0000000000	0.0000000000
1.6180712424	0.2024533955	0.6834304036	0.0000000000	1.2511330708	0.0000000000	0.0000000000	0.0000000000
1.6222415291	0.2037136730	0.6844253596	0.0000000000	1.2491431589	0.0000000000	0.0000000000	0.0000000000
1.6264118158	0.2049713207	0.6854182393	0.0000000000	1.2471573993	0.0000000000	0.0000000000	0.0000000000
1.6305821025	0.2062262524	0.6864089749	0.0000000000	1.2451759283	0.0000000000	0.0000000000	0.0000000000
1.6347523892	0.2074783820	0.6873974982	0.0000000000	1.2431988815	0.0000000000	0.0000000000	0.0000000000
